#!OML:ASF F:\VICON\USERDATA\INSTALL\rory3\rory3.ASF
:FULLY-SPECIFIED
:DEGREES
757
root -4.47164 18.7684 2.27498 9.7817 -49.1469 0.0725098
lowerback 11.4087 0.898193 -7.88624
upperback 5.70374 0.196876 -2.92176
thorax -0.424042 -0.0793248 1.36161
lowerneck -9.55652 5.16926 -4.15045
upperneck 23.9274 7.20383 2.16389
head 8.79988 3.1161 2.13863
rclavicle -8.74653e-015 3.18055e-015
rhumerus -16.6353 26.9404 -88.4496
rradius 109.409
rwrist -35.2845
rhand -51.3787 1.62939
rfingers 7.12502
rthumb -23.9118 -26.9018
lclavicle -8.74653e-015 3.18055e-015
lhumerus 4.84137 3.47754 95.1035
lradius 29.7962
lwrist 89.802
lhand -28.7046 42.011
lfingers 7.12502
lthumb -2.06643 71.9808
rfemur -30.239 18.5615 9.26466
rtibia 28.1188
rfoot -14.8786 -16.1896
rtoes -7.94426
lfemur -21.8557 7.41123 -24.4429
ltibia 28.2161
lfoot -19.7986 23.4692
ltoes 3.39136
758
root -4.49042 18.768 2.29582 9.82473 -49.503 -0.0233006
lowerback 11.4842 0.840148 -7.93528
upperback 5.71148 0.109118 -2.82833
thorax -0.449434 -0.124713 1.49626
lowerneck -9.59905 5.31475 -4.19031
upperneck 23.8913 7.42569 2.10943
head 8.78873 3.21076 2.14799
rclavicle -5.88403e-014 6.20208e-014
rhumerus -16.8172 26.3402 -87.8945
rradius 110.05
rwrist -35.2857
rhand -51.7518 0.304571
rfingers 7.12502
rthumb -24.2695 -28.1793
lclavicle -5.88403e-014 6.20208e-014
lhumerus 4.76308 3.84801 95.0858
lradius 29.9203
lwrist 88.4361
lhand -28.4284 41.0559
lfingers 7.12502
lthumb -1.79967 71.0281
rfemur -30.3045 18.6715 9.37284
rtibia 27.9551
rfoot -14.1308 -16.5025
rtoes -6.49926
lfemur -21.7211 7.57198 -24.3787
ltibia 28.2225
lfoot -20.015 23.706
ltoes 3.85607
759
root -4.512 18.7641 2.31586 9.80405 -49.873 -0.0466443
lowerback 11.5517 0.756999 -8.04936
upperback 5.74813 -0.0163589 -2.73611
thorax -0.435461 -0.192383 1.67026
lowerneck -9.6934 5.48608 -4.2991
upperneck 23.8538 7.69059 2.09272
head 8.78054 3.32349 2.18697
rclavicle -2.78299e-014 3.33958e-014
rhumerus -16.8693 25.8688 -87.3669
rradius 110.652
rwrist -35.6723
rhand -52.8535 0.35504
rfingers 7.12502
rthumb -25.3255 -27.9835
lclavicle -2.78299e-014 3.33958e-014
lhumerus 4.82961 4.37402 95.0689
lradius 30.0099
lwrist 87.145
lhand -28.2965 40.0067
lfingers 7.12502
lthumb -1.67231 69.9799
rfemur -30.3259 18.6105 9.52901
rtibia 27.7871
rfoot -12.8969 -16.658
rtoes -4.97729
lfemur -21.6017 7.73454 -24.377
ltibia 28.2942
lfoot -20.1443 24.0321
ltoes 4.98684
760
root -4.53505 18.7555 2.3347 9.69891 -50.2116 0.0153305
lowerback 11.5004 0.597619 -7.94602
upperback 5.88579 -0.208914 -2.87175
thorax -0.248164 -0.295883 1.49294
lowerneck -9.83039 5.69067 -4.21949
upperneck 23.7327 7.95479 2.13411
head 8.75593 3.46124 2.21384
rclavicle -1.27222e-014 2.70347e-014
rhumerus -16.7519 25.2779 -87.0899
rradius 111.15
rwrist -36.1826
rhand -52.6644 0.881725
rfingers 7.12502
rthumb -25.1443 -27.4824
lclavicle -1.27222e-014 2.70347e-014
lhumerus 5.18701 4.97134 94.7762
lradius 29.8663
lwrist 85.8937
lhand -28.1521 39.1423
lfingers 7.12502
lthumb -1.53281 69.1165
rfemur -30.2734 18.1541 9.79751
rtibia 27.643
rfoot -11.6789 -16.5622
rtoes -4.05756
lfemur -21.5056 8.08121 -24.4576
ltibia 28.446
lfoot -20.229 23.9626
ltoes 5.55321
761
root -4.55701 18.7497 2.34843 9.70274 -50.5233 0.0628844
lowerback 10.991 0.321049 -7.24966
upperback 6.23846 -0.450848 -3.47497
thorax 0.400995 -0.423816 0.499836
lowerneck -9.89059 5.92485 -3.67476
upperneck 23.249 8.14724 2.25764
head 8.61104 3.62638 2.17224
rclavicle 2.54444e-014 5.08889e-014
rhumerus -16.327 24.386 -87.3635
rradius 111.529
rwrist -36.5512
rhand -51.9679 0.382644
rfingers 7.12502
rthumb -24.4767 -28.0734
lclavicle 2.54444e-014 5.08889e-014
lhumerus 5.99265 5.50151 93.8844
lradius 29.5606
lwrist 84.5545
lhand -27.8659 38.618
lfingers 7.12502
lthumb -1.25643 68.594
rfemur -30.3394 17.5555 10.0742
rtibia 27.5602
rfoot -10.7836 -16.324
rtoes -2.89801
lfemur -21.5761 8.46742 -24.537
ltibia 28.6564
lfoot -20.3286 23.819
ltoes 5.26588
762
root -4.57792 18.7432 2.36078 9.77886 -50.7226 0.10743
lowerback 11.3682 0.32974 -7.71541
upperback 5.99077 -0.525995 -3.08157
thorax -0.0465634 -0.456527 1.18045
lowerneck -9.6303 5.96992 -3.89158
upperneck 23.1817 8.31223 1.90928
head 8.5442 3.65094 2.09468
rclavicle 1.82882e-014 -4.45278e-014
rhumerus -16.8033 23.897 -86.3171
rradius 112.049
rwrist -37.1367
rhand -51.6998 0.24748
rfingers 7.12502
rthumb -24.2197 -28.2431
lclavicle 1.82882e-014 -4.45278e-014
lhumerus 6.0592 6.58526 94.4964
lradius 29.23
lwrist 83.0246
lhand -27.4526 38.2409
lfingers 7.12502
lthumb -0.857212 68.2189
rfemur -30.4831 17.1693 10.2575
rtibia 27.5669
rfoot -10.2054 -16.379
rtoes -1.76971
lfemur -21.7508 8.84438 -24.6245
ltibia 28.8966
lfoot -20.3891 23.6821
ltoes 5.02256
763
root -4.60045 18.7353 2.37343 9.92681 -50.8685 0.0166121
lowerback 11.334 0.175764 -7.4958
upperback 6.05898 -0.702681 -3.16712
thorax 0.0508507 -0.543624 0.98787
lowerneck -9.55222 6.06117 -3.63944
upperneck 22.8884 8.4197 1.75198
head 8.44626 3.71589 2.00036
rclavicle -2.14687e-014 1.59028e-015
rhumerus -16.8128 23.3673 -85.903
rradius 112.404
rwrist -37.6236
rhand -51.4313 0.722311
rfingers 7.12502
rthumb -23.9622 -27.8023
lclavicle -2.14687e-014 1.59028e-015
lhumerus 6.49699 6.69217 94.1259
lradius 29.0941
lwrist 82.3965
lhand -27.8975 37.8619
lfingers 7.12502
lthumb -1.28695 67.8378
rfemur -30.6108 16.9932 10.52
rtibia 27.71
rfoot -9.83041 -16.6839
rtoes -1.19924
lfemur -21.8981 9.19251 -24.5929
ltibia 29.1386
lfoot -20.408 23.5839
ltoes 4.36407
764
root -4.62461 18.7275 2.38418 10.0051 -51.112 -0.0167952
lowerback 11.3251 0.0759323 -7.41343
upperback 6.11945 -0.824875 -3.22812
thorax 0.124958 -0.606218 0.891023
lowerneck -9.61047 6.1132 -3.49577
upperneck 22.7477 8.47102 1.7306
head 8.41515 3.75386 1.97316
rclavicle 7.95139e-014 1.74931e-014
rhumerus -16.8386 22.8954 -85.5269
rradius 112.676
rwrist -38.1799
rhand -50.7723 0.328307
rfingers 7.12502
rthumb -23.3302 -28.2779
lclavicle 7.95139e-014 1.74931e-014
lhumerus 6.88499 6.51891 93.688
lradius 29.1771
lwrist 81.9684
lhand -29.4675 37.0307
lfingers 7.12502
lthumb -2.8032 66.992
rfemur -30.7487 16.8115 10.7709
rtibia 27.9716
rfoot -9.42927 -16.7394
rtoes -0.743593
lfemur -22.0088 9.59561 -24.5906
ltibia 29.3724
lfoot -20.5452 23.4397
ltoes 3.9069
765
root -4.64797 18.7169 2.3913 10.0929 -51.3829 -0.00583444
lowerback 11.3121 -0.0287984 -7.30168
upperback 6.16916 -0.952221 -3.34135
thorax 0.187962 -0.669398 0.723928
lowerneck -9.75319 6.17622 -3.33987
upperneck 22.6586 8.52239 1.78814
head 8.41343 3.79902 1.97491
rclavicle -1.37559e-013 -6.36111e-015
rhumerus -16.8911 22.2682 -85.406
rradius 112.735
rwrist -38.6964
rhand -50.1321 0.602461
rfingers 7.12502
rthumb -22.7159 -28.0804
lclavicle -1.37559e-013 -6.36111e-015
lhumerus 7.36067 6.32244 93.2099
lradius 29.1472
lwrist 81.175
lhand -29.6046 37.6213
lfingers 7.12502
lthumb -2.93562 67.5808
rfemur -30.9407 16.5676 11.0013
rtibia 28.2552
rfoot -9.17884 -16.5417
rtoes 0.00366348
lfemur -22.2003 10.361 -24.6675
ltibia 29.602
lfoot -20.4789 22.9899
ltoes 3.64506
766
root -4.6762 18.7076 2.39796 10.1667 -51.6019 -0.00873289
lowerback 11.3404 -0.113233 -7.20784
upperback 6.20238 -1.05826 -3.40586
thorax 0.210373 -0.721179 0.615888
lowerneck -9.84664 6.20833 -3.24826
upperneck 22.6546 8.54167 1.83747
head 8.43005 3.82002 1.98184
rclavicle 5.56597e-014 4.45278e-014
rhumerus -17.0792 21.5704 -85.3594
rradius 112.675
rwrist -39.1272
rhand -49.4329 1.11537
rfingers 7.12502
rthumb -22.0447 -27.6482
lclavicle 5.56597e-014 4.45278e-014
lhumerus 7.8421 5.98547 92.7963
lradius 28.9938
lwrist 80.2937
lhand -26.9324 39.8912
lfingers 7.12502
lthumb -0.354831 69.8707
rfemur -31.0683 16.4697 11.2184
rtibia 28.5278
rfoot -9.26801 -16.4252
rtoes 0.969697
lfemur -22.3241 11.09 -24.7161
ltibia 29.8014
lfoot -20.3439 22.5477
ltoes 3.39679
767
root -4.70505 18.7009 2.40996 10.1833 -51.7954 -0.0208215
lowerback 11.4682 -0.176583 -7.18913
upperback 6.20836 -1.152 -3.34531
thorax 0.153901 -0.767075 0.680317
lowerneck -9.73373 6.22169 -3.29226
upperneck 22.557 8.58562 1.72167
head 8.37941 3.82783 1.94729
rclavicle 7.39479e-014 2.22639e-014
rhumerus -17.3568 21.1844 -85.127
rradius 112.728
rwrist -39.5596
rhand -48.8713 1.19274
rfingers 7.12502
rthumb -21.5054 -27.6334
lclavicle 7.39479e-014 2.22639e-014
lhumerus 8.3408 5.99398 92.6467
lradius 28.7642
lwrist 79.169
lhand -28.7763 38.5256
lfingers 7.12502
lthumb -2.13567 68.4947
rfemur -31.1405 16.6619 11.3449
rtibia 28.7829
rfoot -9.3565 -16.5155
rtoes 1.18743
lfemur -22.307 11.3973 -24.698
ltibia 29.9536
lfoot -20.4633 22.4199
ltoes 3.36588
